<?xml version="1.0" encoding="UTF-8"?>
<!DOCTYPE svg PUBLIC "-//W3C//DTD SVG 1.1//EN" "http://www.w3.org/Graphics/SVG/1.1/DTD/svg11.dtd">
<!-- Creator: CorelDRAW X8 -->
<svg xmlns="http://www.w3.org/2000/svg" xml:space="preserve" width="40mm" height="40mm" version="1.1" style="shape-rendering:geometricPrecision; text-rendering:geometricPrecision; image-rendering:optimizeQuality; fill-rule:evenodd; clip-rule:evenodd"
viewBox="0 0 4000 4000"
 xmlns:xlink="http://www.w3.org/1999/xlink">
 <defs>
  <style type="text/css">
   <![CDATA[
    .fil2 {fill:#FEFEFE}
    .fil1 {fill:#FFED00}
    .fil0 {fill:#E42B24}
   ]]>
  </style>
 </defs>
 <g id="Layer_x0020_1">
  <metadata id="CorelCorpID_0Corel-Layer"/>
  <path class="fil0" d="M1925 71c491,387 888,1007 999,2332 188,89 286,-33 322,-299 206,777 153,1458 -884,1777l-637 10c-953,-310 -1010,-1016 -646,-1908 266,-645 923,-1395 846,-1912z"/>
  <path class="fil1" d="M1977 1005c294,232 567,991 634,1784 112,54 171,-19 192,-178 124,464 180,1079 -441,1270l-516 8c-570,-185 -557,-817 -339,-1351 159,-386 516,-1223 470,-1533z"/>
  <path class="fil2" d="M1991 2432c157,123 303,528 338,951 60,28 91,-11 103,-95 65,247 95,575 -236,677l-275 4c-304,-99 -297,-435 -181,-720 85,-206 276,-652 251,-817z"/>
 </g>
</svg>
