<?xml version="1.0" encoding="UTF-8"?>
<!DOCTYPE svg PUBLIC "-//W3C//DTD SVG 1.1//EN" "http://www.w3.org/Graphics/SVG/1.1/DTD/svg11.dtd">
<!-- Creator: CorelDRAW X8 -->
<svg xmlns="http://www.w3.org/2000/svg" xml:space="preserve" width="40mm" height="40mm" version="1.1" style="shape-rendering:geometricPrecision; text-rendering:geometricPrecision; image-rendering:optimizeQuality; fill-rule:evenodd; clip-rule:evenodd"
viewBox="0 0 4000 4000"
 xmlns:xlink="http://www.w3.org/1999/xlink">
 <defs>
  <style type="text/css">
   <![CDATA[
    .str1 {stroke:#727271;stroke-width:20}
    .str0 {stroke:#41A1AE;stroke-width:20}
    .fil1 {fill:none}
    .fil0 {fill:#66C3D0}
    .fil2 {fill:#41A1AE}
    .fil3 {fill:#41A1AE}
   ]]>
  </style>
    <clipPath id="id0">
     <path d="M-456 -459l4874 114 0 4843 -4874 -115 0 -4842z"/>
    </clipPath>
 </defs>
 <g id="Layer_x0020_1">
  <metadata id="CorelCorpID_0Corel-Layer"/>
  <g id="_215474088">
   <g style="clip-path:url(#id0)">
    <image x="-456" y="-459" width="4874" height="4957" xlink:href="0484-SALVAVI-f1d5ab01-d7a7-471f-9f8b-b7a282cc313d_Images\0484-SALVAVI-f1d5ab01-d7a7-471f-9f8b-b7a282cc313d_ImgID1.png"/>
   </g>
  </g>
  <path class="fil0" d="M1968 113c1029,0 1863,834 1863,1862 0,1029 -834,1863 -1863,1863 -1028,0 -1862,-834 -1862,-1863 0,-1028 834,-1862 1862,-1862zm0 898c533,0 965,432 965,964 0,533 -432,965 -965,965 -532,0 -964,-432 -964,-965 0,-532 432,-964 964,-964z"/>
  <circle class="fil1" cx="1968" cy="1975" r="964"/>
  <path class="fil2" d="M1376 209c389,-133 785,-150 1192,3l-158 914c-302,-156 -555,-143 -919,12l-115 -929z"/>
  <path class="fil2" d="M2557 3742c-389,133 -785,150 -1192,-3l157 -914c303,156 556,143 920,-11l115 928z"/>
  <path class="fil2" d="M232 2606c-143,-385 -172,-781 -31,-1192l918 132c-147,307 -127,560 38,919l-925 141z"/>
  <path class="fil2" d="M3724 1370c135,388 155,785 5,1193l-915 -152c153,-304 139,-557 -18,-920l928 -121z"/>
  <ellipse class="fil3 str0" cx="1951" cy="137" rx="138" ry="57"/>
  <ellipse class="fil3 str0" cx="3821" cy="1940" rx="55" ry="159"/>
  <ellipse class="fil3 str0" cx="111" cy="2046" rx="55" ry="159"/>
  <ellipse class="fil3 str0" transform="matrix(-0.000677044 1.22774 -1.22774 -0.000677044 1940.49 3837.63)" rx="45" ry="130"/>
  <path class="fil1 str1" d="M1951 80c502,-135 834,78 1270,317 146,81 389,456 475,615 72,132 290,781 176,874"/>
  <path class="fil1 str1" d="M59 1995c-200,-220 148,-1130 370,-1322 168,-144 967,-714 1147,-650 113,41 190,2 375,57"/>
  <path class="fil1 str1" d="M56 2046c44,423 -27,276 104,728 157,542 95,516 628,886 142,98 364,61 555,194 235,163 423,28 597,38"/>
  <path class="fil1 str1" d="M1940 3892c225,113 651,82 851,-45 250,-160 707,-438 794,-752 6,-24 283,-614 288,-696 7,-148 88,-25 -15,-326 -11,-33 -10,-114 17,-133"/>
 </g>
</svg>
