<?xml version="1.0" encoding="UTF-8"?>
<!DOCTYPE svg PUBLIC "-//W3C//DTD SVG 1.1//EN" "http://www.w3.org/Graphics/SVG/1.1/DTD/svg11.dtd">
<!-- Creator: CorelDRAW X8 -->
<svg xmlns="http://www.w3.org/2000/svg" xml:space="preserve" width="40mm" height="40mm" version="1.1" style="shape-rendering:geometricPrecision; text-rendering:geometricPrecision; image-rendering:optimizeQuality; fill-rule:evenodd; clip-rule:evenodd"
viewBox="0 0 4000 4000"
 xmlns:xlink="http://www.w3.org/1999/xlink">
 <defs>
  <style type="text/css">
   <![CDATA[
    .str3 {stroke:#FEFEFE;stroke-width:20}
    .str6 {stroke:#D9DADA;stroke-width:20}
    .str2 {stroke:#2B2A29;stroke-width:20}
    .str4 {stroke:#2B2A29;stroke-width:20}
    .str5 {stroke:#FFED00;stroke-width:20}
    .str1 {stroke:#FEFEFE;stroke-width:7.62}
    .str0 {stroke:#393185;stroke-width:7.62}
    .fil3 {fill:#FEFEFE}
    .fil1 {fill:#FEFEFE}
    .fil6 {fill:#D9DADA}
    .fil2 {fill:#2B2A29}
    .fil4 {fill:#2B2A29}
    .fil5 {fill:#FFED00}
    .fil0 {fill:#31295E}
   ]]>
  </style>
 </defs>
 <g id="Layer_x0020_1">
  <metadata id="CorelCorpID_0Corel-Layer"/>
  <path class="fil0 str0" d="M251 1834c169,-19 341,-28 519,-12 491,-109 971,-105 1445,-20 272,39 469,252 1005,496l254 -398 290 98 14 -301 84 12 -41 398 -324 -124 -184 333 75 202 268 30 14 278c110,73 142,253 84,555 -5,63 -62,94 -200,77 55,-554 -155,-625 -619,-235 -600,5 -1210,-150 -1819,-289 429,-736 -723,-889 -673,-181 -407,-101 -622,-258 -305,-571 -10,-178 35,-284 113,-348z"/>
  <path class="fil1 str1" d="M2145 1891l-93 388 -899 -192c146,-270 528,-279 992,-196z"/>
  <path class="fil1 str1" d="M2268 1916c313,112 615,302 919,479 77,116 60,169 -110,135 -304,-114 -605,-192 -873,-192l64 -422z"/>
  <ellipse class="fil2 str2" cx="836" cy="2694" rx="331" ry="312"/>
  <ellipse class="fil3 str3" cx="836" cy="2694" rx="165" ry="155"/>
  <path class="fil2 str2" d="M3325 2985c80,-54 360,-13 314,213 -47,226 -144,337 -321,337 -177,0 -355,-238 -321,-337 35,-99 248,-160 328,-213z"/>
  <path class="fil3 str3" d="M3388 3049c74,0 99,107 99,179 0,71 -61,128 -136,128 -75,0 -304,-147 -231,-152 73,-5 193,-155 268,-155z"/>
  <path class="fil4 str4" d="M3754 3381l410 0 0 -2050 -2589 -983 -151 59 2381 945 -142 1335c96,240 206,453 91,694z"/>
  <path class="fil5 str5" d="M1341 250c152,-21 263,51 263,114 0,63 -98,117 -243,117 -146,0 -283,-54 -283,-117 0,-63 111,-93 263,-114z"/>
  <path class="fil6 str6" d="M3667 2772c-209,-327 425,-310 -220,-699 -285,-172 598,-578 -123,-950 -145,-75 -202,-626 287,-691 228,-30 -536,344 -23,422 280,42 452,-269 464,44 11,278 -700,30 -222,505 265,263 -320,332 30,736 134,155 -187,642 -193,633z"/>
 </g>
</svg>
