<?xml version="1.0" encoding="UTF-8"?>
<!DOCTYPE svg PUBLIC "-//W3C//DTD SVG 1.1//EN" "http://www.w3.org/Graphics/SVG/1.1/DTD/svg11.dtd">
<!-- Creator: CorelDRAW X8 -->
<svg xmlns="http://www.w3.org/2000/svg" xml:space="preserve" width="40mm" height="40mm" version="1.1" style="shape-rendering:geometricPrecision; text-rendering:geometricPrecision; image-rendering:optimizeQuality; fill-rule:evenodd; clip-rule:evenodd"
viewBox="0 0 4000 4000"
 xmlns:xlink="http://www.w3.org/1999/xlink">
 <defs>
  <style type="text/css">
   <![CDATA[
    .str1 {stroke:#8377B5;stroke-width:20}
    .str0 {stroke:#4F2862;stroke-width:20}
    .fil0 {fill:#A79ECD}
    .fil6 {fill:#8377B5}
    .fil1 {fill:#6B3085}
    .fil5 {fill:#4F2862}
    .fil2 {fill:url(#id0)}
    .fil3 {fill:url(#id1)}
    .fil4 {fill:url(#id2)}
   ]]>
  </style>
  <linearGradient id="id0" gradientUnits="userSpaceOnUse" x1="1327.83" y1="1128.78" x2="2676.55" y2="1128.78">
   <stop offset="0" style="stop-opacity:1; stop-color:#E53A24"/>
   <stop offset="0.0431373" style="stop-opacity:1; stop-color:#E78C1A"/>
   <stop offset="0.0705882" style="stop-opacity:1; stop-color:#DD3024"/>
   <stop offset="0.45098" style="stop-opacity:1; stop-color:#DD5825"/>
   <stop offset="1" style="stop-opacity:1; stop-color:#E9DE10"/>
  </linearGradient>
  <linearGradient id="id1" gradientUnits="userSpaceOnUse" xlink:href="#id0" x1="2820.1" y1="924.897" x2="3319.18" y2="1281.78">
  </linearGradient>
  <linearGradient id="id2" gradientUnits="userSpaceOnUse" xlink:href="#id0" x1="759.92" y1="1248.96" x2="1165.4" y2="725.434">
  </linearGradient>
 </defs>
 <g id="Layer_x0020_1">
  <metadata id="CorelCorpID_0Corel-Layer"/>
  <path class="fil0" d="M3344 1191c-588,-687 -1456,-730 -1988,275 -123,608 -15,1134 408,1503 53,350 -16,653 -136,1016l1206 14 -85 -530c299,46 691,-98 616,-249 -64,-128 -234,-274 71,-216 94,18 30,-127 6,-253 322,-125 108,-284 -5,-672 88,-296 31,-592 -93,-888z"/>
  <path class="fil1" d="M764 1185c587,-688 1455,-731 1987,274 123,609 15,1135 -408,1503 -53,350 -33,657 88,1020l-1194 5 121 -525c-402,63 -903,-138 -695,-284 164,-114 -39,-27 -23,-186l25 -248c-361,-6 -234,-305 5,-672 -88,-295 -31,-591 94,-887z"/>
  <polygon class="fil2" points="2198,-228 1919,1010 2677,576 1982,2485 2138,1254 1328,1709 "/>
  <polygon class="fil3" points="3501,653 3070,1038 3465,1077 2703,1600 3087,1186 2667,1140 "/>
  <polygon class="fil4" points="495,503 892,984 951,559 1483,1403 1052,972 985,1423 "/>
  <polygon class="fil5 str0" points="737,1981 1158,1746 1144,1720 753,1905 "/>
  <polygon class="fil6 str1" points="3417,1901 2996,1666 3011,1640 3401,1825 "/>
 </g>
</svg>
